<svg width="400" height="204" viewBox="0 0 400 204" xmlns="http://www.w3.org/2000/svg">
      <style>
        .base { font-family: 'DepartureMonoNerdFontMono', 'Geist Mono', 'Fira Code', monospace; }
        
        .header { 
            font-weight: 600; 
            font-size: 16px; 
            fill: #84ACF0; 
            letter-spacing: 2.5px; 
            text-transform: uppercase;
        }
        
        .last-updated { font-weight: 400; font-size: 9px; fill: #555555; }
        .lang-name { font-weight: 400; font-size: 13px; fill: #ffffff; }
        .lang-percent { font-weight: 400; font-size: 13px; fill: #9ca3af; } 
      </style>
      <rect x="0" y="0" width="400" height="204" fill="#000000" rx="0"/>
      
      <text x="200.0" y="32" text-anchor="middle" dominant-baseline="middle" class="base header">-═Language Stats═-</text>
    
      <g transform="translate(0, 65)">
        <circle cx="30" cy="6" r="5" fill="#E44D26"/>
        <text x="43" y="10" class="base lang-name">HTML</text>
        <text x="185" y="10" class="base lang-percent" text-anchor="end">26.0%</text>
      </g>
        
      <g transform="translate(0, 65)">
        <circle cx="220" cy="6" r="5" fill="#3178C6"/>
        <text x="233" y="10" class="base lang-name">TypeScript</text>
        <text x="375" y="10" class="base lang-percent" text-anchor="end">22.5%</text>
      </g>
        
      <g transform="translate(0, 91)">
        <circle cx="30" cy="6" r="5" fill="#264DE4"/>
        <text x="43" y="10" class="base lang-name">CSS</text>
        <text x="185" y="10" class="base lang-percent" text-anchor="end">20.9%</text>
      </g>
        
      <g transform="translate(0, 91)">
        <circle cx="220" cy="6" r="5" fill="#4EAA25"/>
        <text x="233" y="10" class="base lang-name">Shell</text>
        <text x="375" y="10" class="base lang-percent" text-anchor="end">12.1%</text>
      </g>
        
      <g transform="translate(0, 117)">
        <circle cx="30" cy="6" r="5" fill="#F7DF1E"/>
        <text x="43" y="10" class="base lang-name">JavaScript</text>
        <text x="185" y="10" class="base lang-percent" text-anchor="end">9.6%</text>
      </g>
        
      <g transform="translate(0, 117)">
        <circle cx="220" cy="6" r="5" fill="#2f80ed"/>
        <text x="233" y="10" class="base lang-name">GLSL</text>
        <text x="375" y="10" class="base lang-percent" text-anchor="end">5.0%</text>
      </g>
        
      <g transform="translate(0, 143)">
        <circle cx="30" cy="6" r="5" fill="#3776AB"/>
        <text x="43" y="10" class="base lang-name">Python</text>
        <text x="185" y="10" class="base lang-percent" text-anchor="end">2.1%</text>
      </g>
        
      <g transform="translate(0, 143)">
        <circle cx="220" cy="6" r="5" fill="#08097F"/>
        <text x="233" y="10" class="base lang-name">Lua</text>
        <text x="375" y="10" class="base lang-percent" text-anchor="end">1.8%</text>
      </g>
        
      <text x="375" y="192" text-anchor="end" class="base last-updated">last updated: Feb 05, 2026</text>
    </svg>
    