<svg width="400" height="184" viewBox="0 0 400 184" xmlns="http://www.w3.org/2000/svg">
      <style>
        .base { font-family: 'GeistMono Nerd Font', 'Geist Mono', 'Fira Code', monospace; }
        .header { font-weight: 600; font-size: 18px; fill: #ffffff; }
        .last-updated { font-weight: 400; font-size: 10px; fill: #555555; }
        .lang-name { font-weight: 400; font-size: 13px; fill: #ffffff; }
        .lang-percent { font-weight: 400; font-size: 13px; fill: #9ca3af; } 
      </style>
      <rect x="0" y="0" width="400" height="184" fill="#000000" rx="0"/>
      <text x="200.0" y="32" text-anchor="middle" dominant-baseline="middle" class="base header">Most Used Languages</text>
      <text x="375" y="32" text-anchor="end" dominant-baseline="middle" class="base last-updated">18-01-26</text>
    
      <g transform="translate(0, 65)">
        <circle cx="30" cy="6" r="5" fill="#E44D26"/>
        <text x="43" y="10" class="base lang-name">HTML</text>
        <text x="185" y="10" class="base lang-percent" text-anchor="end">28.6%</text>
      </g>
        
      <g transform="translate(0, 91)">
        <circle cx="30" cy="6" r="5" fill="#264DE4"/>
        <text x="43" y="10" class="base lang-name">CSS</text>
        <text x="185" y="10" class="base lang-percent" text-anchor="end">22.6%</text>
      </g>
        
      <g transform="translate(0, 117)">
        <circle cx="30" cy="6" r="5" fill="#3178C6"/>
        <text x="43" y="10" class="base lang-name">TypeScript</text>
        <text x="185" y="10" class="base lang-percent" text-anchor="end">17.3%</text>
      </g>
        
      <g transform="translate(0, 143)">
        <circle cx="30" cy="6" r="5" fill="#4EAA25"/>
        <text x="43" y="10" class="base lang-name">Shell</text>
        <text x="185" y="10" class="base lang-percent" text-anchor="end">11.9%</text>
      </g>
        
      <g transform="translate(0, 65)">
        <circle cx="220" cy="6" r="5" fill="#F7DF1E"/>
        <text x="233" y="10" class="base lang-name">JavaScript</text>
        <text x="375" y="10" class="base lang-percent" text-anchor="end">9.8%</text>
      </g>
        
      <g transform="translate(0, 91)">
        <circle cx="220" cy="6" r="5" fill="#2f80ed"/>
        <text x="233" y="10" class="base lang-name">GLSL</text>
        <text x="375" y="10" class="base lang-percent" text-anchor="end">5.5%</text>
      </g>
        
      <g transform="translate(0, 117)">
        <circle cx="220" cy="6" r="5" fill="#3776AB"/>
        <text x="233" y="10" class="base lang-name">Python</text>
        <text x="375" y="10" class="base lang-percent" text-anchor="end">2.3%</text>
      </g>
        
      <g transform="translate(0, 143)">
        <circle cx="220" cy="6" r="5" fill="#08097F"/>
        <text x="233" y="10" class="base lang-name">Lua</text>
        <text x="375" y="10" class="base lang-percent" text-anchor="end">1.9%</text>
      </g>
        </svg>